<svg xmlns="http://www.w3.org/2000/svg" width="1200" height="520" viewBox="0 0 1200 520">
  <style>.t{font:22px sans-serif;fill:#2c2b29}.h{font:bold 28px sans-serif;fill:#201f1d}.s{font:18px sans-serif;fill:#5e5a54}.box{stroke:#948d82;stroke-width:2;rx:18}.a{stroke:#6d675f;stroke-width:3;fill:none;marker-end:url(#m)}</style>
  <defs><marker id="m" markerWidth="10" markerHeight="10" refX="9" refY="3" orient="auto"><path d="M0,0 L0,6 L9,3 z" fill="#6d675f"/></marker></defs>
  <text x="48" y="48" class="h">现在看到什么 ≠ 接下来会摸到什么</text>
  <rect x="45" y="92" width="230" height="125" class="box" fill="#dceef2"/><text x="75" y="140" class="t">当前触觉差分</text><text x="75" y="180" class="s">tᵏτ − tᵏ0</text>
  <rect x="345" y="92" width="250" height="125" class="box" fill="#e8e1f1"/><text x="390" y="140" class="t">冻结 DINOv2</text><text x="385" y="180" class="s">每视角 10 tokens → g</text>
  <rect x="665" y="72" width="260" height="165" class="box" fill="#f5dfda"/><text x="725" y="125" class="t">触觉预测器</text><text x="705" y="165" class="s">g + VL 前缀 + 查询</text><text x="738" y="205" class="s">→ z（10 tokens）</text>
  <rect x="980" y="92" width="175" height="125" class="box" fill="#eee7ce"/><text x="1014" y="140" class="t">动作专家</text><text x="1005" y="180" class="s">生成 H=50</text>
  <path d="M275 155 H345" class="a"/><path d="M595 155 H665" class="a"/><path d="M925 155 H980" class="a"/>
  <rect x="345" y="330" width="250" height="125" class="box" fill="#dceef2"/><text x="380" y="378" class="t">未来净触觉变化</text><text x="387" y="418" class="s">tᵏτ+H − tᵏτ</text>
  <rect x="665" y="330" width="260" height="125" class="box" fill="#e8e1f1"/><text x="710" y="378" class="t">同一冻结编码器</text><text x="722" y="418" class="s">多视角平均 → z*</text>
  <path d="M595 392 H665" class="a"/><path d="M795 330 V252" class="a"/>
  <text x="940" y="360" class="t">训练：让 z 对齐 z*</text><text x="940" y="400" class="s">InfoNCE + L1 重建</text><text x="940" y="438" class="s">推理：不需要未来帧</text>
</svg>
